HIERARCHY
ROOT Hips
{
	OFFSET 0.000000 100.481300 0.000000
	CHANNELS 6 Xposition Yposition Zposition Xrotation Yrotation Zrotation 
	JOINT Spine
	{
		OFFSET -0.279200 12.230698 -2.892100
		CHANNELS 3 Xrotation Yrotation Zrotation
		JOINT Spine1
		{
			OFFSET -0.232667 10.192268 -1.242267
			CHANNELS 3 Xrotation Yrotation Zrotation
			JOINT Spine1_split
			{
				OFFSET -0.232667 10.192268 -1.242267
				CHANNELS 3 Xrotation Yrotation Zrotation
				JOINT Spine2
				{
					OFFSET -0.232667 10.192268 -1.242267
					CHANNELS 3 Xrotation Yrotation Zrotation
					JOINT Neck
					{
						OFFSET -0.418800 17.814194 8.416900
						CHANNELS 3 Xrotation Yrotation Zrotation
						JOINT Head
						{
							OFFSET 0.000000 7.031097 3.806800
							CHANNELS 3 Xrotation Yrotation Zrotation
							JOINT HeadTop_End
							{
								OFFSET 0.000000 24.646606 12.978600
								CHANNELS 3 Xrotation Yrotation Zrotation
								End Site
								{
									OFFSET 0.000000 0.000000 0.000000
								}
							}
						}
					}
					JOINT LeftShoulder
					{
						OFFSET 8.476499 7.247704 -3.868750
						CHANNELS 3 Xrotation Yrotation Zrotation
						JOINT LeftShoulder_split
						{
							OFFSET 8.476499 7.247704 -3.868750
							CHANNELS 3 Xrotation Yrotation Zrotation
							JOINT LeftArm
							{
								OFFSET 9.308998 -2.777710 0.208600
								CHANNELS 3 Xrotation Yrotation Zrotation
								JOINT LeftForeArm
								{
									OFFSET 29.972298 0.000000 0.000000
									CHANNELS 3 Xrotation Yrotation Zrotation
									JOINT LeftHand
									{
										OFFSET 26.026505 0.000000 0.000000
										CHANNELS 3 Xrotation Yrotation Zrotation
										JOINT LeftHandThumb1
										{
											OFFSET 12.240501 -7.147949 9.207150
											CHANNELS 3 Xrotation Yrotation Zrotation
											JOINT LeftHandThumb2
											{
												OFFSET 4.138618 -2.389435 2.389433
												CHANNELS 3 Xrotation Yrotation Zrotation
												JOINT LeftHandThumb3
												{
													OFFSET 2.726913 -1.574387 1.574386
													CHANNELS 3 Xrotation Yrotation Zrotation
													JOINT LeftHandThumb4
													{
														OFFSET 3.941010 -2.275345 2.275342
														CHANNELS 3 Xrotation Yrotation Zrotation
														End Site
														{
															OFFSET 0.000000 0.000000 0.000000
														}
													}
												}
											}
										}
										JOINT LeftHandIndex1
										{
											OFFSET 24.424698 -1.985611 5.953459
											CHANNELS 3 Xrotation Yrotation Zrotation
											JOINT LeftHandIndex2
											{
												OFFSET 6.426697 0.000000 0.000000
												CHANNELS 3 Xrotation Yrotation Zrotation
												JOINT LeftHandIndex3
												{
													OFFSET 5.337898 0.000000 0.000000
													CHANNELS 3 Xrotation Yrotation Zrotation
													JOINT LeftHandIndex4
													{
														OFFSET 4.409401 0.000000 0.000000
														CHANNELS 3 Xrotation Yrotation Zrotation
														End Site
														{
															OFFSET 0.000000 0.000000 0.000000
														}
													}
												}
											}
										}
										JOINT LeftHandMiddle1
										{
											OFFSET 23.810104 0.000000 0.000000
											CHANNELS 3 Xrotation Yrotation Zrotation
											JOINT LeftHandMiddle2
											{
												OFFSET 7.176498 0.000000 0.000000
												CHANNELS 3 Xrotation Yrotation Zrotation
												JOINT LeftHandMiddle3
												{
													OFFSET 6.774902 0.000000 0.000000
													CHANNELS 3 Xrotation Yrotation Zrotation
													JOINT LeftHandMiddle4
													{
														OFFSET 5.403328 0.000000 0.000000
														CHANNELS 3 Xrotation Yrotation Zrotation
														End Site
														{
															OFFSET 0.000000 0.000000 0.000000
														}
													}
												}
											}
										}
										JOINT LeftHandRing1
										{
											OFFSET 22.908401 -0.839279 -6.020567
											CHANNELS 3 Xrotation Yrotation Zrotation
											JOINT LeftHandRing2
											{
												OFFSET 6.337502 0.000000 0.000000
												CHANNELS 3 Xrotation Yrotation Zrotation
												JOINT LeftHandRing3
												{
													OFFSET 5.779297 0.000000 0.000000
													CHANNELS 3 Xrotation Yrotation Zrotation
													JOINT LeftHandRing4
													{
														OFFSET 4.965698 0.000000 0.000000
														CHANNELS 3 Xrotation Yrotation Zrotation
														End Site
														{
															OFFSET 0.000000 0.000000 0.000000
														}
													}
												}
											}
										}
										JOINT LeftHandPinky1
										{
											OFFSET 20.037003 -1.530319 -10.950146
											CHANNELS 3 Xrotation Yrotation Zrotation
											JOINT LeftHandPinky2
											{
												OFFSET 5.254700 0.000000 0.000000
												CHANNELS 3 Xrotation Yrotation Zrotation
												JOINT LeftHandPinky3
												{
													OFFSET 4.810204 0.000000 0.000000
													CHANNELS 3 Xrotation Yrotation Zrotation
													JOINT LeftHandPinky4
													{
														OFFSET 3.647202 0.000000 0.000000
														CHANNELS 3 Xrotation Yrotation Zrotation
														End Site
														{
															OFFSET 0.000000 0.000000 0.000000
														}
													}
												}
											}
										}
									}
								}
							}
						}
					}
					JOINT RightShoulder
					{
						OFFSET -7.570500 7.247704 -3.868750
						CHANNELS 3 Xrotation Yrotation Zrotation
						JOINT RightShoulder_split
						{
							OFFSET -7.570500 7.247704 -3.868750
							CHANNELS 3 Xrotation Yrotation Zrotation
							JOINT RightArm
							{
								OFFSET -9.308998 -2.777710 0.208500
								CHANNELS 3 Xrotation Yrotation Zrotation
								JOINT RightForeArm
								{
									OFFSET -29.972300 0.000000 0.000000
									CHANNELS 3 Xrotation Yrotation Zrotation
									JOINT RightHand
									{
										OFFSET -26.026505 0.000000 0.000000
										CHANNELS 3 Xrotation Yrotation Zrotation
										JOINT RightHandThumb1
										{
											OFFSET -12.240601 -7.148026 9.207092
											CHANNELS 3 Xrotation Yrotation Zrotation
											JOINT RightHandThumb2
											{
												OFFSET -4.138618 -2.389435 2.389433
												CHANNELS 3 Xrotation Yrotation Zrotation
												JOINT RightHandThumb3
												{
													OFFSET -2.726974 -1.574417 1.574421
													CHANNELS 3 Xrotation Yrotation Zrotation
													JOINT RightHandThumb4
													{
														OFFSET -3.941010 -2.275345 2.275343
														CHANNELS 3 Xrotation Yrotation Zrotation
														End Site
														{
															OFFSET 0.000000 0.000000 0.000000
														}
													}
												}
											}
										}
										JOINT RightHandIndex1
										{
											OFFSET -24.424698 -1.985657 5.953444
											CHANNELS 3 Xrotation Yrotation Zrotation
											JOINT RightHandIndex2
											{
												OFFSET -6.426697 0.000000 0.000000
												CHANNELS 3 Xrotation Yrotation Zrotation
												JOINT RightHandIndex3
												{
													OFFSET -5.337898 0.000000 0.000000
													CHANNELS 3 Xrotation Yrotation Zrotation
													JOINT RightHandIndex4
													{
														OFFSET -4.409401 0.000000 0.000000
														CHANNELS 3 Xrotation Yrotation Zrotation
														End Site
														{
															OFFSET 0.000000 0.000000 0.000000
														}
													}
												}
											}
										}
										JOINT RightHandMiddle1
										{
											OFFSET -23.810097 0.000000 0.000000
											CHANNELS 3 Xrotation Yrotation Zrotation
											JOINT RightHandMiddle2
											{
												OFFSET -7.176498 0.000000 0.000000
												CHANNELS 3 Xrotation Yrotation Zrotation
												JOINT RightHandMiddle3
												{
													OFFSET -6.774902 0.000000 0.000000
													CHANNELS 3 Xrotation Yrotation Zrotation
													JOINT RightHandMiddle4
													{
														OFFSET -5.403328 0.000000 0.000000
														CHANNELS 3 Xrotation Yrotation Zrotation
														End Site
														{
															OFFSET 0.000000 0.000000 0.000000
														}
													}
												}
											}
										}
										JOINT RightHandRing1
										{
											OFFSET -22.908302 -0.839325 -6.020576
											CHANNELS 3 Xrotation Yrotation Zrotation
											JOINT RightHandRing2
											{
												OFFSET -6.337502 0.000000 0.000000
												CHANNELS 3 Xrotation Yrotation Zrotation
												JOINT RightHandRing3
												{
													OFFSET -5.779297 0.000000 0.000000
													CHANNELS 3 Xrotation Yrotation Zrotation
													JOINT RightHandRing4
													{
														OFFSET -4.965698 0.000000 0.000000
														CHANNELS 3 Xrotation Yrotation Zrotation
														End Site
														{
															OFFSET 0.000000 0.000000 0.000000
														}
													}
												}
											}
										}
										JOINT RightHandPinky1
										{
											OFFSET -20.037003 -1.530334 -10.950259
											CHANNELS 3 Xrotation Yrotation Zrotation
											JOINT RightHandPinky2
											{
												OFFSET -5.254700 0.000000 0.000000
												CHANNELS 3 Xrotation Yrotation Zrotation
												JOINT RightHandPinky3
												{
													OFFSET -4.810204 0.000000 0.000000
													CHANNELS 3 Xrotation Yrotation Zrotation
													JOINT RightHandPinky4
													{
														OFFSET -3.647202 0.000000 0.000000
														CHANNELS 3 Xrotation Yrotation Zrotation
														End Site
														{
															OFFSET 0.000000 0.000000 0.000000
														}
													}
												}
											}
										}
									}
								}
							}
						}
					}
				}
			}
		}
	}
	JOINT LeftUpLeg
	{
		OFFSET 15.427100 -6.655098 0.678600
		CHANNELS 3 Xrotation Yrotation Zrotation
		JOINT LeftLeg
		{
			OFFSET 4.081073 -39.591068 13.024000
			CHANNELS 3 Xrotation Yrotation Zrotation
			JOINT LeftFoot
			{
				OFFSET -4.081074 -37.707932 -15.979700
				CHANNELS 3 Xrotation Yrotation Zrotation
				JOINT LeftToeBase
				{
					OFFSET 5.346399 -15.068900 20.645000
					CHANNELS 3 Xrotation Yrotation Zrotation
					JOINT LeftToe_End
					{
						OFFSET 2.754700 0.931300 11.300900
						CHANNELS 3 Xrotation Yrotation Zrotation
						End Site
						{
							OFFSET 0.000000 0.000000 0.000000
						}
					}
				}
			}
		}
	}
	JOINT RightUpLeg
	{
		OFFSET -15.569500 -6.655098 0.678600
		CHANNELS 3 Xrotation Yrotation Zrotation
		JOINT RightLeg
		{
			OFFSET -4.081825 -39.591045 13.023800
			CHANNELS 3 Xrotation Yrotation Zrotation
			JOINT RightFoot
			{
				OFFSET 4.081824 -37.707954 -15.979600
				CHANNELS 3 Xrotation Yrotation Zrotation
				JOINT RightToeBase
				{
					OFFSET -5.346400 -15.068900 20.645000
					CHANNELS 3 Xrotation Yrotation Zrotation
					JOINT RightToe_End
					{
						OFFSET -2.754700 0.931300 11.300900
						CHANNELS 3 Xrotation Yrotation Zrotation
						End Site
						{
							OFFSET 0.000000 0.000000 0.000000
						}
					}
				}
			}
		}
	}
}
MOTION
Frames: 5
Frame Time: 0.016667
1.901629 80.835007 -4.063179 34.051382 -24.221323 5.517301 11.515356 5.145506 -0.653885 5.818548 0.259714 -2.809619 0.000000 0.000000 0.000000 -10.931795 0.793514 3.196296 0.763631 9.298925 -8.496113 -32.953139 4.763627 2.047907 -0.000000 -0.000000 0.000000 1.952248 -2.052959 14.106887 0.000000 0.000000 0.000000 -76.027341 17.447737 -39.907638 -79.531324 -83.559455 -82.552754 -40.469735 -0.152836 8.942036 17.551582 -5.699215 -12.932256 10.850550 26.127722 8.644755 20.927037 51.115845 0.218658 0.000001 0.000001 -0.000001 13.980893 1.201564 -55.004364 0.370797 1.161721 -65.441866 1.983971 2.148005 -57.665108 -0.000000 0.000001 -0.000000 7.504738 1.174512 -63.778503 1.807880 1.475658 -64.568019 0.130330 -0.912279 -43.272503 -0.000000 0.000002 -0.000000 8.574308 2.179156 -75.148979 -0.207621 1.009279 -57.855049 0.443047 1.742123 -53.581311 -0.000000 -0.000001 -0.000001 10.030071 13.637091 -84.750230 0.877122 0.062345 -64.595476 1.141230 1.253123 -55.016337 -0.000000 -0.000000 0.000001 4.985255 19.106679 8.633893 0.000000 0.000000 0.000000 -22.095469 5.720160 42.521336 29.456639 69.546878 -32.206172 0.332148 10.304455 -5.342092 18.329287 0.310724 -9.071071 -2.198313 -31.113554 7.361211 -6.566769 -4.138084 2.407586 0.000001 0.000000 0.000002 2.375170 -3.668647 30.846989 -2.142085 -2.481809 41.032908 -1.899972 -4.827585 36.532923 -0.000001 -0.000003 -0.000002 -1.972130 -5.717199 36.022008 0.289274 -5.113423 49.347946 -0.652828 -1.229469 38.485387 -0.000001 -0.000001 0.000002 -3.257767 -8.572679 37.723323 4.044282 -4.071801 59.216907 2.113918 -3.170822 41.547477 -0.000000 0.000000 -0.000001 -6.464745 -11.358786 54.840876 10.730554 -2.567731 66.401822 6.421416 -3.091710 46.889641 0.000001 -0.000001 -0.000001 -70.357779 4.438789 24.113845 89.649785 2.863100 -7.037243 7.191132 -5.236610 0.670525 -0.000095 -0.000042 -0.000018 0.000003 0.000000 0.000000 -48.432636 3.513615 8.558518 48.833179 4.537260 0.042049 -22.574011 -2.256062 -0.683554 -11.137421 0.075432 -0.382174 0.000000 -0.000002 -0.000000 
1.344343 81.550323 3.817928 32.142839 -22.996313 5.305858 13.408519 5.726241 -2.902468 4.946181 0.681149 -1.790055 0.000000 0.000000 0.000000 -10.657558 0.747527 3.502206 -0.964053 8.765075 -7.245217 -30.630035 4.634937 1.209476 -0.000000 0.000000 0.000000 1.850585 -1.530459 12.872927 0.000000 0.000000 0.000000 -74.590221 15.606159 -37.843373 -144.943526 -87.295644 -147.420153 -48.350875 2.730425 12.545432 17.551580 -5.699205 -12.932259 10.850550 26.127724 8.644752 20.927046 51.115848 0.218658 -0.000001 0.000002 0.000002 13.980894 1.201565 -55.004364 0.370797 1.161719 -65.441873 1.983976 2.148007 -57.665108 -0.000000 0.000004 0.000001 7.504739 1.174514 -63.778503 1.807881 1.475657 -64.568019 0.130331 -0.912280 -43.272500 0.000000 0.000002 -0.000000 8.574308 2.179161 -75.148986 -0.207620 1.009279 -57.855049 0.443051 1.742126 -53.581314 0.000000 -0.000002 -0.000000 10.030071 13.637091 -84.750230 0.877120 0.062345 -64.595476 1.141230 1.253125 -55.016337 0.000000 0.000002 0.000001 4.599374 20.091987 7.394492 0.000000 0.000000 0.000000 -22.228634 2.483213 40.725877 73.013841 78.448780 -77.195700 3.828298 11.723700 0.088462 16.754299 0.369608 -8.461178 -1.642426 -29.135780 6.903587 -5.717236 -4.655624 1.946951 0.000001 -0.000002 0.000001 2.171750 -3.424937 28.919434 -2.060041 -2.222323 38.754265 -1.947550 -4.379988 33.777843 -0.000001 0.000001 -0.000001 -1.682250 -5.183764 33.477366 0.193943 -4.713282 48.099640 -0.660757 -1.093581 34.870172 -0.000001 -0.000001 -0.000001 -2.821113 -8.304356 35.271165 3.590730 -3.876627 56.964918 1.849646 -2.988225 39.459133 -0.000001 0.000000 -0.000000 -6.055269 -10.420604 51.003980 9.770748 -2.646447 64.230389 5.802194 -3.085881 44.336957 0.000001 0.000000 0.000000 -75.623595 3.423332 23.702409 86.689423 3.682377 -6.163949 8.453398 -5.399221 -0.361555 -0.011738 0.018035 0.054006 -0.000000 -0.000000 -0.000000 -39.849919 3.831988 4.932258 47.862793 4.337924 0.237959 -23.525716 -5.685454 1.829836 -14.918614 1.363969 0.006235 -0.000000 0.000002 0.000000 
0.752815 82.578766 11.703693 30.199931 -21.745967 5.213647 15.397724 6.396482 -5.459822 4.029746 1.227231 -0.599438 0.000000 0.000000 0.000000 -10.285321 0.762047 3.923219 -2.852087 7.836787 -6.163745 -28.170360 4.307468 0.283356 0.000000 -0.000000 -0.000000 1.718139 -1.109379 11.529355 0.000000 0.000000 0.000000 -73.265465 13.679085 -35.280536 -210.644974 -84.574531 -212.479125 -56.352968 4.804346 15.957390 17.551583 -5.699211 -12.932259 10.850552 26.127721 8.644756 20.927044 51.115845 0.218656 -0.000002 0.000001 -0.000001 13.980893 1.201566 -55.004367 0.370799 1.161716 -65.441873 1.983979 2.148006 -57.665115 -0.000000 -0.000001 -0.000000 7.504738 1.174510 -63.778503 1.807881 1.475658 -64.568025 0.130330 -0.912279 -43.272506 0.000001 -0.000002 -0.000001 8.574309 2.179158 -75.148986 -0.207621 1.009280 -57.855056 0.443046 1.742124 -53.581318 -0.000000 -0.000000 0.000000 10.030071 13.637089 -84.750230 0.877120 0.062345 -64.595469 1.141227 1.253123 -55.016337 -0.000001 0.000000 -0.000001 4.280029 20.150725 5.717930 0.000000 0.000000 0.000000 -22.945332 2.376924 38.931470 122.509743 76.439830 -127.618178 5.357776 7.052865 3.426940 15.011011 0.421188 -7.763754 -1.045693 -26.961161 6.336299 -4.772942 -5.239088 1.455207 -0.000003 -0.000002 0.000001 1.966060 -3.143409 26.765529 -1.949414 -1.946045 36.208800 -1.956028 -3.890158 30.704214 -0.000000 0.000001 -0.000000 -1.319216 -4.630096 30.634665 0.107737 -4.267003 46.698727 -0.653379 -0.947320 30.840886 0.000001 0.000001 0.000000 -2.322592 -8.050478 32.533055 3.109235 -3.624317 54.449971 1.578670 -2.766520 37.126367 -0.000002 -0.000002 0.000001 -5.502892 -9.469272 46.733210 8.715355 -2.657355 61.799278 5.129179 -3.024031 41.487539 0.000001 0.000000 -0.000001 -79.708519 2.943345 22.897577 81.804370 4.815160 -5.356479 9.675698 -5.479702 -1.614886 -0.023413 0.036144 0.108009 0.000001 -0.000000 0.000000 -30.334130 3.853212 1.352669 44.519904 4.497733 0.541341 -22.462991 -9.789500 5.104536 -20.162935 2.647287 0.122460 -0.000000 -0.000000 -0.000000 
0.128315 83.883530 19.356369 28.241471 -20.473924 5.212712 17.491283 7.115386 -8.169931 3.077284 1.862036 0.679604 0.000000 0.000000 0.000000 -9.831920 0.832859 4.395545 -4.861706 6.567923 -5.254665 -25.614984 3.813658 -0.693865 -0.000000 -0.000000 0.000000 1.645553 -1.000236 9.830203 0.000000 0.000000 0.000000 -71.214503 12.734341 -32.673593 -207.556950 -81.794753 -208.882703 -60.947643 5.792296 18.734762 17.551582 -5.699211 -12.932256 10.850551 26.127719 8.644757 20.927039 51.115845 0.218657 -0.000001 0.000001 -0.000000 13.980894 1.201567 -55.004367 0.370798 1.161718 -65.441866 1.983975 2.148006 -57.665108 -0.000001 0.000002 -0.000000 7.504738 1.174514 -63.778503 1.807880 1.475657 -64.568025 0.130328 -0.912282 -43.272500 -0.000000 -0.000001 0.000002 8.574309 2.179160 -75.148979 -0.207622 1.009280 -57.855049 0.443052 1.742124 -53.581314 -0.000000 -0.000001 0.000000 10.030071 13.637093 -84.750230 0.877121 0.062345 -64.595469 1.141228 1.253124 -55.016337 0.000001 0.000001 0.000001 3.982595 19.709892 3.730238 0.000000 0.000000 0.000000 -24.454297 4.679001 37.090509 140.273439 71.780439 -145.773381 5.361434 -0.110349 4.820076 13.153468 0.459034 -6.994876 -0.426160 -24.662066 5.664077 -3.761627 -5.872808 0.952492 -0.000003 -0.000000 -0.000001 1.770446 -2.830788 24.446784 -1.805906 -1.664656 33.469361 -1.914213 -3.378682 27.400443 0.000000 0.000000 -0.000001 -0.886112 -4.086497 27.574572 0.038907 -3.788277 45.183890 -0.627291 -0.798109 26.514910 0.000001 0.000002 0.000001 -1.777063 -7.831451 29.587710 2.625428 -3.317446 51.745073 1.311598 -2.511135 34.616283 -0.000002 0.000000 -0.000003 -4.811198 -8.567986 42.150689 7.604482 -2.580015 59.179259 4.431017 -2.894454 38.424810 -0.000001 0.000001 -0.000000 -81.613848 3.256639 21.669130 74.912641 6.196837 -4.564329 10.438090 -5.448885 -2.981868 -0.035102 0.054245 0.162017 -0.000000 -0.000000 0.000000 -20.701680 3.576713 -1.848021 39.553940 3.984364 0.693697 -19.071435 -13.279892 8.821668 -24.724699 3.828115 0.951677 0.000000 -0.000001 0.000000 
-0.528820 85.362244 26.601955 26.284600 -19.165668 5.287807 19.682771 7.819550 -10.885193 2.102509 2.546437 1.965313 0.000000 0.000000 0.000000 -9.313786 0.947436 4.855493 -6.915199 5.019031 -4.501209 -23.038290 3.199300 -1.694707 -0.000001 0.000000 -0.000000 1.575018 -1.138138 7.901665 0.000000 0.000000 0.000000 -68.670251 12.567408 -29.970737 -216.018092 -77.688552 -216.720864 -67.747506 5.776993 20.897321 17.551583 -5.699211 -12.932256 10.850550 26.127724 8.644754 20.927044 51.115845 0.218658 -0.000002 0.000003 0.000001 13.980894 1.201565 -55.004367 0.370795 1.161720 -65.441866 1.983973 2.148007 -57.665108 0.000002 -0.000000 0.000000 7.504738 1.174514 -63.778503 1.807873 1.475659 -64.568019 0.130331 -0.912281 -43.272500 -0.000001 0.000001 0.000004 8.574309 2.179159 -75.148979 -0.207621 1.009279 -57.855049 0.443050 1.742125 -53.581311 0.000000 -0.000001 -0.000000 10.030071 13.637090 -84.750230 0.877120 0.062346 -64.595469 1.141229 1.253124 -55.016340 0.000000 -0.000000 -0.000000 3.699679 18.680743 1.234707 0.000000 0.000000 0.000000 -25.214258 8.862765 35.909334 144.796240 69.393124 -150.356670 3.702383 -7.939593 1.369704 11.235134 0.478062 -6.172869 0.201254 -22.308518 4.898747 -2.711006 -6.540174 0.456707 0.000003 -0.000001 -0.000001 1.595055 -2.495483 22.024787 -1.633967 -1.391496 30.608786 -1.816579 -2.866425 23.954421 -0.000000 0.000001 -0.000001 -0.392213 -3.579640 24.378268 -0.006637 -3.291217 43.593672 -0.581455 -0.653361 22.009482 0.000000 -0.000003 0.000000 -1.202118 -7.662693 26.514072 2.160700 -2.961081 48.922927 1.059916 -2.225848 31.995690 -0.000000 -0.000000 0.000001 -3.999947 -7.771067 37.378408 6.478632 -2.403496 56.442559 3.736060 -2.692753 35.232476 0.000002 -0.000001 -0.000000 -81.049825 4.333713 20.030530 66.378135 7.676367 -3.717132 10.687754 -5.319537 -4.302019 -0.046677 0.072338 0.216011 0.000001 -0.000000 -0.000000 -11.914224 3.346263 -4.775296 34.053882 2.764315 0.790807 -12.374487 -15.332287 13.564256 -30.459748 4.857201 2.062012 -0.000000 -0.000002 0.000000 
